<?xml version="1.0" encoding="UTF-8" standalone="no"?>
<!-- Generator: Adobe Illustrator 15.1.0, SVG Export Plug-In . SVG Version: 6.00 Build 0)  -->

<svg
   xmlns:dc="http://purl.org/dc/elements/1.1/"
   xmlns:cc="http://creativecommons.org/ns#"
   xmlns:rdf="http://www.w3.org/1999/02/22-rdf-syntax-ns#"
   xmlns:svg="http://www.w3.org/2000/svg"
   xmlns="http://www.w3.org/2000/svg"
   xmlns:sodipodi="http://sodipodi.sourceforge.net/DTD/sodipodi-0.dtd"
   xmlns:inkscape="http://www.inkscape.org/namespaces/inkscape"
   version="1.1"
   id="Layer_1"
   x="0px"
   y="0px"
   width="45.994999"
   height="45.995998"
   viewBox="0 0 45.994999 45.995998"
   enable-background="new 0 0 100 100"
   xml:space="preserve"
   inkscape:version="0.91 r13725"
   sodipodi:docname="Cloud-Rain.svg"><metadata
     id="metadata9"><rdf:RDF><cc:Work
         rdf:about=""><dc:format>image/svg+xml</dc:format><dc:type
           rdf:resource="http://purl.org/dc/dcmitype/StillImage" /><dc:title></dc:title></cc:Work></rdf:RDF></metadata><defs
     id="defs7" /><sodipodi:namedview
     pagecolor="#ffffff"
     bordercolor="#666666"
     borderopacity="1"
     objecttolerance="10"
     gridtolerance="10"
     guidetolerance="10"
     inkscape:pageopacity="0"
     inkscape:pageshadow="2"
     inkscape:window-width="640"
     inkscape:window-height="480"
     id="namedview5"
     showgrid="false"
     fit-margin-top="1"
     fit-margin-left="1"
     fit-margin-bottom="1"
     fit-margin-right="1"
     inkscape:zoom="2.36"
     inkscape:cx="23.053"
     inkscape:cy="28.639"
     inkscape:window-x="0"
     inkscape:window-y="1080"
     inkscape:window-maximized="0"
     inkscape:current-layer="Layer_1" /><path
     d="m 36.996,32.298 0,-4.381 c 2.389,-1.383 4,-3.961 4,-6.92 0,-4.417 -3.582,-7.999 -8,-7.999 -1.6,0 -3.082,0.48 -4.333,1.291 C 27.432,8.972 22.689,4.999 16.998,4.999 10.372,4.999 5,10.371 5,16.997 c 0,3.55 1.551,6.728 4,8.925 l 0,4.916 C 4.223,28.07 1,22.916 1,16.997 1,8.162 8.163,1 16.998,1 c 6.004,0 11.229,3.311 13.965,8.203 0.664,-0.113 1.338,-0.205 2.033,-0.205 6.627,0 11.999,5.372 11.999,11.999 0,5.223 -3.341,9.653 -7.999,11.301 z m -21.997,-11.3 c 1.104,0 1.999,0.896 1.999,2 l 0,15.998 c 0,1.105 -0.895,2 -1.999,2 -1.104,0 -2,-0.895 -2,-2 l 0,-15.998 c 0,-1.104 0.896,-2 2,-2 z m 7.999,4 c 1.104,0 2,0.895 2,2 l 0,15.998 c 0,1.104 -0.896,2 -2,2 -1.104,0 -2,-0.896 -2,-2 l 0,-15.998 c 0,-1.106 0.896,-2 2,-2 z m 7.999,-4 c 1.104,0 1.999,0.896 1.999,2 l 0,15.998 c 0,1.105 -0.895,2 -1.999,2 -1.104,0 -2,-0.895 -2,-2 l 0,-15.998 c 0,-1.104 0.896,-2 2,-2 z"
     id="path3"
     inkscape:connector-curvature="0"
     style="clip-rule:evenodd;fill-rule:evenodd" /></svg>