<?xml version="1.0" encoding="UTF-8" standalone="no"?>
<!-- Generator: Adobe Illustrator 15.1.0, SVG Export Plug-In . SVG Version: 6.00 Build 0)  -->

<svg
   xmlns:dc="http://purl.org/dc/elements/1.1/"
   xmlns:cc="http://creativecommons.org/ns#"
   xmlns:rdf="http://www.w3.org/1999/02/22-rdf-syntax-ns#"
   xmlns:svg="http://www.w3.org/2000/svg"
   xmlns="http://www.w3.org/2000/svg"
   xmlns:sodipodi="http://sodipodi.sourceforge.net/DTD/sodipodi-0.dtd"
   xmlns:inkscape="http://www.inkscape.org/namespaces/inkscape"
   version="1.1"
   id="Layer_1"
   x="0px"
   y="0px"
   width="45.994999"
   height="41.994999"
   viewBox="0 0 45.994999 41.994999"
   enable-background="new 0 0 100 100"
   xml:space="preserve"
   inkscape:version="0.91 r13725"
   sodipodi:docname="Cloud-Fog.svg"><metadata
     id="metadata9"><rdf:RDF><cc:Work
         rdf:about=""><dc:format>image/svg+xml</dc:format><dc:type
           rdf:resource="http://purl.org/dc/dcmitype/StillImage" /><dc:title></dc:title></cc:Work></rdf:RDF></metadata><defs
     id="defs7" /><sodipodi:namedview
     pagecolor="#ffffff"
     bordercolor="#666666"
     borderopacity="1"
     objecttolerance="10"
     gridtolerance="10"
     guidetolerance="10"
     inkscape:pageopacity="0"
     inkscape:pageshadow="2"
     inkscape:window-width="640"
     inkscape:window-height="480"
     id="namedview5"
     showgrid="false"
     fit-margin-top="1"
     fit-margin-left="1"
     fit-margin-bottom="1"
     fit-margin-right="1"
     inkscape:zoom="2.36"
     inkscape:cx="22.997"
     inkscape:cy="24.639"
     inkscape:window-x="0"
     inkscape:window-y="1080"
     inkscape:window-maximized="0"
     inkscape:current-layer="Layer_1" /><path
     d="M 42.995,32.997 3,32.997 c -1.104,0 -2,-0.896 -2,-2 0,-1.105 0.896,-2 2,-2 l 39.995,0 c 1.104,0 2,0.895 2,2 0,1.103 -0.895,2 -2,2 z m 0,-8 -39.995,0 c -1.104,0 -2,-0.895 -2,-2 0,-1.104 0.896,-2 2,-2 l 39.995,0 c 1.104,0 2,0.896 2,2 0,1.105 -0.895,2 -2,2 z M 32.996,12.999 c -1.601,0 -3.083,0.48 -4.333,1.291 C 27.431,8.973 22.689,4.999 16.998,4.999 10.372,4.999 5,10.372 5,16.999 l -4,0 C 1,8.164 8.163,1 16.998,1 23.002,1 28.227,4.312 30.963,9.204 31.627,9.091 32.3,8.999 32.996,8.999 c 5.222,0 9.652,3.342 11.301,8 l -4.381,0 c -1.384,-2.39 -3.961,-4 -6.92,-4 z M 3,36.995 l 39.995,0 c 1.104,0 2,0.896 2,2 0,1.105 -0.896,2 -2,2 L 3,40.995 c -1.104,0 -2,-0.895 -2,-2 0,-1.104 0.895,-2 2,-2 z"
     id="path3"
     inkscape:connector-curvature="0"
     style="clip-rule:evenodd;fill-rule:evenodd" /></svg>