<?xml version="1.0" encoding="UTF-8" standalone="no"?>
<!-- Generator: Adobe Illustrator 15.1.0, SVG Export Plug-In . SVG Version: 6.00 Build 0)  -->

<svg
   xmlns:dc="http://purl.org/dc/elements/1.1/"
   xmlns:cc="http://creativecommons.org/ns#"
   xmlns:rdf="http://www.w3.org/1999/02/22-rdf-syntax-ns#"
   xmlns:svg="http://www.w3.org/2000/svg"
   xmlns="http://www.w3.org/2000/svg"
   xmlns:sodipodi="http://sodipodi.sourceforge.net/DTD/sodipodi-0.dtd"
   xmlns:inkscape="http://www.inkscape.org/namespaces/inkscape"
   version="1.1"
   id="Layer_1"
   x="0px"
   y="0px"
   width="49.993999"
   height="49.993999"
   viewBox="0 0 49.993999 49.993999"
   enable-background="new 0 0 100 100"
   xml:space="preserve"
   inkscape:version="0.91 r13725"
   sodipodi:docname="Sun.svg"><metadata
     id="metadata9"><rdf:RDF><cc:Work
         rdf:about=""><dc:format>image/svg+xml</dc:format><dc:type
           rdf:resource="http://purl.org/dc/dcmitype/StillImage" /><dc:title></dc:title></cc:Work></rdf:RDF></metadata><defs
     id="defs7" /><sodipodi:namedview
     pagecolor="#ffffff"
     bordercolor="#666666"
     borderopacity="1"
     objecttolerance="10"
     gridtolerance="10"
     guidetolerance="10"
     inkscape:pageopacity="0"
     inkscape:pageshadow="2"
     inkscape:window-width="640"
     inkscape:window-height="480"
     id="namedview5"
     showgrid="false"
     fit-margin-top="1"
     fit-margin-left="1"
     fit-margin-bottom="1"
     fit-margin-right="1"
     inkscape:zoom="2.36"
     inkscape:cx="24.997"
     inkscape:cy="24.997"
     inkscape:window-x="0"
     inkscape:window-y="1080"
     inkscape:window-maximized="0"
     inkscape:current-layer="Layer_1" /><path
     d="m 46.994,26.996 -3.998,0 c -1.105,0 -2,-0.895 -2,-1.999 0,-1.104 0.895,-2 2,-2 l 3.998,0 c 1.105,0 2,0.896 2,2 0,1.104 -0.894,1.999 -2,1.999 z M 39.139,13.685 c -0.781,0.781 -2.049,0.781 -2.828,0 -0.781,-0.781 -0.781,-2.047 0,-2.828 l 2.828,-2.828 c 0.779,-0.781 2.047,-0.781 2.828,0 0.779,0.781 0.779,2.047 0,2.828 l -2.828,2.828 z m -14.141,23.31 c -6.627,0 -12,-5.372 -12,-11.998 0,-6.627 5.372,-11.999 12,-11.999 6.627,0 11.998,5.372 11.998,11.999 0,6.626 -5.371,11.998 -11.998,11.998 z m 0,-19.997 c -4.418,0 -8,3.581 -8,7.999 0,4.417 3.583,7.999 8,7.999 4.417,0 7.998,-3.582 7.998,-7.999 0,-4.418 -3.58,-7.999 -7.998,-7.999 z m 0,-7.999 c -1.105,0 -2,-0.896 -2,-2 l 0,-3.999 c 0,-1.104 0.895,-2 2,-2 1.104,0 2,0.896 2,2 l 0,3.999 c 0,1.104 -0.897,2 -2,2 z M 10.857,13.685 8.029,10.857 c -0.781,-0.781 -0.781,-2.047 0,-2.828 0.781,-0.781 2.047,-0.781 2.828,0 l 2.828,2.828 c 0.781,0.781 0.781,2.047 0,2.828 -0.781,0.781 -2.047,0.781 -2.828,0 z M 8.999,24.997 c 0,1.104 -0.896,1.999 -2,1.999 l -4,0 C 1.895,26.996 1,26.101 1,24.997 c 0,-1.104 0.896,-2 1.999,-2 l 4,0 c 1.105,0 2,0.896 2,2 z m 1.858,11.312 c 0.781,-0.78 2.047,-0.78 2.828,0 0.781,0.781 0.781,2.048 0,2.828 l -2.828,2.828 c -0.781,0.781 -2.047,0.781 -2.828,0 -0.781,-0.78 -0.781,-2.047 0,-2.828 l 2.828,-2.828 z m 14.141,4.686 c 1.104,0 2,0.895 2,1.999 l 0,4 c 0,1.104 -0.896,2 -2,2 -1.105,0 -2,-0.896 -2,-2 l 0,-4 c 0,-1.104 0.895,-1.999 2,-1.999 z m 14.141,-4.686 2.828,2.828 c 0.779,0.781 0.779,2.048 0,2.828 -0.781,0.781 -2.049,0.781 -2.828,0 l -2.828,-2.828 c -0.781,-0.78 -0.781,-2.047 0,-2.828 0.779,-0.781 2.046,-0.781 2.828,0 z"
     id="path3"
     inkscape:connector-curvature="0"
     style="clip-rule:evenodd;fill-rule:evenodd" /></svg>